<svg xmlns="http://www.w3.org/2000/svg" viewBox="0 0 524 490">
  <path fill="#003D0B" d="m28.7 45.3-3.2-1a8 8 0 0 1-3.3-1.9c-.8-.7-1.4-1.7-1.2-2.8l.9-6c0-.7.3-1.4.5-2.1a6.3 6.3 0 0 1 2.8-4.2 9 9 0 0 1 2.7-1.5c4-1.2 7.9-2.2 12.1-1.6 2.8.3 5.7.6 8.4 1.5 2.1.7 4 1.7 5.5 3.4a7 7 0 0 1 1.7 5.2l-.2 4.3 4.2 1.6a9 9 0 0 1 2.4 1.6c1 1 1.3 2.3 1.2 3.8l-.6 8L62 64l-1 12-.9 3.4c-.2 1.1-1 1.6-2 1.8-2.3.7-4.7 1-7 1.1-5.7.2-11.3-.6-16.8-2.1-1.2-.3-2.3-.9-3.6-1.3l-.8.5a16 16 0 0 1-10 2.7 21 21 0 0 1-11.3-3.7c-3-2.1-4.9-5-5.2-8.7a17 17 0 0 1 14.5-18.3c.7 0 1.3-.4 2-.5.9-.1 1.8-.3 2.6-.1 1.2.2 2.3.8 3.5 1.2l1.5.7 1.3-7.5ZM19 79.1h2.7c4.7-.5 8.1-2.6 9.8-7.3.6-1.7.8-3.6.7-5.5a12 12 0 0 0-5.5-9.7l-3.4-2A6.4 6.4 0 0 0 19 54a14 14 0 0 0-11 8.2A18 18 0 0 0 6.7 66c-1 4.7.4 8 4.3 10.4a20 20 0 0 0 8 2.7Zm17.3-42.6h9.1a18 18 0 0 0 4.8-.8c2-.7 2.3-2.1 1.2-3.8l-.8-.9c-1-.6-2-1.4-3-1.9A33 33 0 0 0 35.2 27c-2.3 0-4.6.4-6.7 1.4a6.5 6.5 0 0 0-3 2.4c-.6 1-.5 2 .5 2.7.8.5 1.6 1 2.5 1.2l7.8 1.8Zm16 2.2-4.8.9a48.9 48.9 0 0 1-23.2-3.9l-.5 4.6c1 .9 1.8 1.4 3.4 1.7 2.6.6 5.1 1.2 7.7 1.6a40 40 0 0 0 16.9-.8l.5-4Zm7.2 18.7c-2.2.7-4 1.4-6 1.9-4.9 1.1-9.7.6-14.5-.4l-5.6-1.4 1.4 3 1 3.2 1.6.4a46 46 0 0 0 15.7.2c1.7-.3 3.3-.8 5-1.3.4-.1.8-.3 1-.8 0-1.6.3-3.2.4-4.8ZM31 53.6c.9.4 1.8 1 2.8 1.3 4.7 1.5 9.5 2.2 14.4 2 3.6 0 7-1 10.1-2.9.4-.2 1-.5 1-.9.3-.9.3-1.8.4-2.8a1 1 0 0 0-.3 0 18 18 0 0 1-8.5 2.3 44 44 0 0 1-19.1-3l-1-.5.2 4.5ZM32.6 77c4 2 19.2 3.7 25.1.7v-3.8c-7.8 2-15.4 1.5-23.1-.2l-2 3.3Zm25.8-10.5c-7.4 1.8-15 1.7-22.4 0l-.5 4.3.2.1 2.2.4c5 .8 10 1 15 .3 1.8-.2 3.5-.7 5.1-1.4l.4-3.7ZM55.2 42l-.2.3c.1 1.5-.9 2.4-2 3-1.7 1-3.4 1.3-5.2 1.5-5.1.6-10.3.3-15.4-.7l-1-.2c.1.5.5.8 1 1a8 8 0 0 0 2.5 1.1c5.3 1.5 10.8 2 16.3 1.5 2-.1 4-.5 5.8-1.7.8-.5 1.4-1.1 2-1.9.6-.7.4-1.5-.3-2a9 9 0 0 0-3.5-2v.1Z"/>
  <path fill="#003D0B" d="m20.4 61.2-.5 4.9 1.9 1c2.4 1.3 2.7 3.7.8 5.7-.7.8-1.3 1.1-3.4 1.8l-.9 2.8c-.2.5-.5 1-1 .9-.7 0-.8-.6-.9-1l-.2-3c-.7-.2-1.5-.5-2.2-.9-.4 0-.8-.3-1.1-.4-.7-.5-1-1-.7-1.7.2-.7.8-1 1.6-.8 1 .1 1.8.4 2.7.6.5-1 .6-1.6.6-3.4-.6-.3-1.2-.5-1.8-1-2.4-1.4-2.7-4-.7-6 .9-.8 2-1.4 3.1-1.7.7-.2 1-.6 1.2-1.3 0-.5.2-1 .4-1.3a1 1 0 0 1 .9-.5 1 1 0 0 1 .6.8v1.7l1.7.7c1 .5 1.3 1.3 1.1 2.1-.2.7-.6 1-1.3.5-.5-.3-1-.7-1.9-.5Zm-2.4.7c-1.4.6-2.2 1.4-2 2 .2.8.9 1 1.6 1.2l.4-3.2Zm1.4 9.4c.9-.2 1.7-.5 1.8-1.4 0-.7-.8-1-1.4-1.1h-.3l-.1 1.6v.9Zm475 272.3 1 9.9.3-.3a21 21 0 0 1 12.8-8.7l2.2-.6c1.3-.3 2.2.2 2.7 1.5.4 1.4.5 3 .3 4.4-.6 4.4-3 7.6-6.2 10.3a23 23 0 0 1-8.4 4.6l-2.6.5.1 2c0 .9-.2 1.8-.4 2.7a1.3 1.3 0 0 1-1.3 1 1.3 1.3 0 0 1-1.4-1.1 26.5 26.5 0 0 1-.7-3.8c-1.2 0-2.3 0-3.4-.2a21.1 21.1 0 0 1-16-10 7 7 0 0 1-1.1-2.3c-.5-1.6.1-3 1.7-3.7 5-1.8 9.9-2 14.7.1 1 .5 2 1.2 3 2 .1-2.7 0-5.2-.2-7.8h-4.3c-6.2-.7-10.7-3.7-12.8-9.6-1.6-4.3-1.2-8.6.6-12.7a22 22 0 0 1 4.1-6c2-2 4.5-3 7-3.9 3.7-1.3 7.5-1.3 11.3-.5 3 .6 5.7 2.5 7.3 5 2.7 4 4.1 8.4 3.6 13.2a14.7 14.7 0 0 1-10.1 12.8c-1.2.5-2.5.8-3.8 1.2Zm-6.9-29.4c-3.6.3-5.3 1.1-7.5 4-2.6 3.4-4 7.3-3.6 11.7.4 5 3.4 10 10 11 4.2.6 8.5-.1 12.2-2a11 11 0 0 0 6.6-10 17 17 0 0 0-2.8-9.9 9.3 9.3 0 0 0-7.2-4.5c-2.6-.3-5.1-.2-7.7-.3Zm5 48.4c0-1.6-.2-3.2-.4-4.9 0-.2-.2-.4-.4-.6l-2.4-2.6a8.4 8.4 0 0 0-4.4-2.5 18.3 18.3 0 0 0-9.4.3c3 7 11.8 11.1 17 10.3Zm17.9-15.5h-.8a19 19 0 0 0-7.2 3 15.8 15.8 0 0 0-5.6 6.3c-.8 1.7-1 3.6-.6 5.4l1.1-.1c5-1.4 9-4.1 11.8-8.6 1.2-1.8 1.6-4 1.3-6Z"/>
  <path fill="#003D0B" d="M493.3 336v1.8c0 1-.5 1.5-1.2 1.6-.6 0-1.1-.4-1.5-1.2l-.5-1.9-2.9-.7c-.3 0-.6-.2-1-.4-.5-.3-.9-.8-.7-1.5.2-.7.9-.7 1.4-.7l3 .5-.2-4.9-1.7-.3c-2.8-.7-3.4-2.9-2.5-5.1.5-1.4 1.3-2.2 3.4-3.6l-.2-1.6c0-.5.1-1 .6-1h.7l.5.5c.3.4.5 1 .7 1.5 1 .3 1.9.5 2.8.9.2 0 .3.2.4.3.2.1.3.3.3.5.1.5-.2.8-.7 1l-2.3.4v.6l.4 3.7 1 .3 1.5.3c3.5.8 3.8 3.3 2.6 5.7a6.3 6.3 0 0 1-2.8 2.8l-1 .5Zm-.8-7.2.4 4.4c1.2-.5 2-1.2 2.4-2.2.3-1 .1-1.5-.8-1.8l-2-.4Zm-3.3-6c-1.4.8-2 1.6-1.8 2.3.3 1 1.2 1 2.1 1.1l-.3-3.3ZM59.5 260l.6-11.8c.1-4.1-.3-8.3-1.3-12.3a24.3 24.3 0 0 0-19.6-18.6c-4.5-.9-9-.4-12.7.2-6.8 1-12.5 4-17 9A34.7 34.7 0 0 0 1 245.4l-.2 1.8a79.1 79.1 0 0 0-.8 11v1.8c0 1.2.7 2 2 2.2l1.2.3 1 .1.9.3h.3a139.3 139.3 0 0 1-.2 2.2c-.1 1.5.1 3 .8 4.9a6 6 0 0 0 5.2 3.9 6 6 0 0 0 6.1-2.9 12 12 0 0 0 2-5c.3-3.1.5-6.2.6-9.4 0-3.6-2.4-6.2-6-6.6h-.1c-2.1-.2-4 .3-5.3 1.4a7 7 0 0 0-2.3 5v.5c-.1.8-.1 1.5-.6 2.2h-.4c-.7-.2-1.3-.3-1.8-.8.4-4.5 1-9 1.7-13.1.6-3.6 1.7-7 3.4-10.2 2.6-5.1 6.2-8.7 10.9-11a35.4 35.4 0 0 1 18.8-3c9.7 2.2 15.2 7.6 17 16.8.7 3.7 1 7.5.7 11.2v.9a260.7 260.7 0 0 1-.9 10.8l-2.4.3-.1-.5c0-2.2-1.1-4-3.4-5.9a6.7 6.7 0 0 0-7.5-.4 7 7 0 0 0-3 4.6c-.3 1.4-.5 2.9-.6 4.3l-.1 1.4-.3 6c.1 3.5 2.3 6 5.8 6.7 2.3.5 4.3-.1 5.8-1.9 1.8-2.2 2.6-4.4 2.3-6.6 0-1.2.1-2.4.6-3.5l1.2.2 2.8.2c2.1 0 3.2-1 3.3-3.1l.1-2.3Zm-43.8 1.6v.7a8 8 0 0 1-1.2 5.2v.1l-.7.9a2.9 2.9 0 0 1-2.7.8c-.4 0-.9-.3-1.2-.6-.4-.3-.7-.7-.9-1.1-.2-.6-.3-1.2-.3-1.9l.6-8.8c.2-1.7 1.1-2.7 2.8-2.8h.8c1.3.2 2.1 1 2.5 2.3.3 1.2.4 2.4.4 3.7v1.5Zm32 1.1v1c-.2.8-.2 1.7 0 2.6.2 1.8-.6 3.2-1.5 4.5-.6 1-1.3 1.4-2.2 1.3-1.4-.3-2.1-.9-2.4-2-.2-.7-.4-1.5-.3-2.3.1-3.5.3-6.3.6-8.8 0-.7.5-1.3 1.2-1.7a4 4 0 0 1 2.1-.4c.3 0 .5 0 .8.2l1.5 1 .7.5-.1 1.3-.3 2.9Zm241.1 196.5.3.1c1 .5 2.1 1 2.6 2.5v.1h.4l1.6-.7a48.1 48.1 0 0 0 11.7-7.5l10.7-10a70 70 0 0 0 5.8-7 19.5 19.5 0 0 0 2.1-20 12.3 12.3 0 0 0-10-7.3 19.2 19.2 0 0 0-14.5 4.3c-.4.3-.7.7-1.1.7-3.7-4.8-6.7-7-11.6-8.1-5-1.2-9.3-.1-12.8 3a35.5 35.5 0 0 0-4.8 5.3c-3 4.1-4.2 8.8-3.5 13.9a41.7 41.7 0 0 0 23.2 30.7Zm-14.9-43a36 36 0 0 1 2.7-3.2 9 9 0 0 1 8.5-3l1.3.2c4.4 1.1 7.7 3.6 9.7 7.5l.8 1.3.3.4.2.1c1.1.4 1.7-.1 2.2-.7 2.6-3.2 6.1-4.8 11.2-5 1.2 0 2.4 0 3.5.4 1.8.4 3.3 1.6 4.3 3.4a12 12 0 0 1 1.5 7c-.1 2.7-1 5.4-2.6 7.7a48.5 48.5 0 0 1-4 5.2 340 340 0 0 1-8 8.4l-.9 1-6 6-2.1 2.2-1 .9-.3.3-2.2-1.3-4.8-3a37.8 37.8 0 0 1-11.2-10.2 36 36 0 0 1-6-13.5 15 15 0 0 1 3-12v-.1ZM41.8 415a13 13 0 0 0-3-6c-2.6-2.8-6-4-10.5-3.7-5.2.3-9 3-11.3 8a34 34 0 0 0-2.8 12.5A289.5 289.5 0 0 1 14 437c0 1.7.1 3.3.4 5a7.8 7.8 0 0 0 4.2 6 22.3 22.3 0 0 0 12.6 2.6c4.2-.5 7-2.6 8.4-6.1.5-1.3 1-2.7 1.2-4l1-7.3.4-2.9v-1.1l.3-2.2a31 31 0 0 0-.5-12ZM38 429.1l-.2 1.9.1.2-.4 2.6-1.2 7c-.2 1.1-.7 2.2-1.2 3.3l-.1.2c-.4 1-1.2 1.6-2.5 2-2 .8-4.2.9-6.5.4a33 33 0 0 1-5.3-1.6c-1.6-.7-2.6-2-2.8-3.9-.2-1.1-.3-2.2-.2-3.4.2-5.3.4-11 .8-16.9 0-1.5.3-3 .7-4.5a10 10 0 0 1 10-7.5l1 .1 2.7.6c2.5.7 4.1 2.4 4.6 5 .5 2.4.9 5 1.2 7.5l-.1 1.9v.6L38 429Z"/>
  <path fill="#003D0B" d="M13.3 450.9c1.8 1.9 4.1 3 6.4 4a41.9 41.9 0 0 0 4.6 1.6l-.6 4.8H23l-7.9-.4c-.7 0-1.4 0-1.7.9-.2.7.1 1.4 1 1.8.5.2 1 .4 1.7.4l4.2.4a344.6 344.6 0 0 1 14.5 1.7h1.3a1.6 1.6 0 0 0 1.4-1.5c0-.8-.4-1.4-1-1.6l-1.4-.3a628.9 628.9 0 0 0-7.1-.9h-.7l-.2-.1.3-4.8h3c4.7 0 8.7-1.8 12-5.5 2.3-2.7 3.7-6.1 4.4-11v-1.7c-.2-1-.7-1.5-1.4-1.6-.3 0-.7 0-1 .2-.3.2-.6.5-.7.8a18.1 18.1 0 0 0-1.5 4.4c-.3 1.2-.5 2.5-1 3.5-2 4.3-5.2 6.7-9.5 7.2a22 22 0 0 1-12.4-2.4c-6-3-9-9-8-15.6l.1-.1c.2-.7.2-1.3.2-2l-.3-.6c0-.2-.3-.4-.5-.5-.5-.3-1 0-1.4.5l-.3.6c-.7 1.9-1.3 3.8-1.1 6a19 19 0 0 0 5.2 11.8Zm322.5-103.3a10 10 0 0 0 6.7 1.6c1.4 0 2.8-.3 4.1-.5l1.8-.3h.7l.4 3.5.6 6.7.4 2.1a1.7 1.7 0 0 0 1.3 1.3c1.7.5 3.4.6 5 .3.7 0 1.3-.2 1.9-.3 1-.3 1.2-.8 1.2-1.8a53.2 53.2 0 0 0-2-12.8v-.5l1 .4 2.5 1 6.2 2.6c4.3 1.8 8.7 3.7 13.3 5.2l.8.3c1.5.5 3 1.1 4.9.7 1.2-.2 1.7-.5 1.5-2a47 47 0 0 0-.6-3.2l-1.3-12-.2-1.7v-.6a7.2 7.2 0 0 0 5.3-6.9c0-2-.4-3.5-1.3-4.7a9 9 0 0 0-6-3v-1.1l-.8-4.3-1.6-10.4c-.1-1-.5-1.4-.9-1.6-.5-.2-1.2-.2-1.9.2l-.7.5-.2.1-.7.6-1.3.9-3.7 2.6c-2.6 1.7-5.2 3.4-7.7 5.3-3 2.1-6 4.5-9 7l-.4.4c-1 .8-1.9 1.5-3.2 1.2h-.5l-.1.1-1.7.3-4 .8c-3 .7-5.1 1.4-7 2.5a10.7 10.7 0 0 0-5.5 5.6c-1 2.6-1.3 5.5-.6 8.3a8.8 8.8 0 0 0 3.3 5.6Zm18.9-.7 1.7 12.5-2.6.4-2-11.9 2.9-1Zm-18.4-13a7.7 7.7 0 0 1 4-3.8c1.5-.7 3.2-1.3 4.8-1.8l5.3-1.3 2-.4 2.1 17-.2.1a8 8 0 0 1-1 .2l-3.5.7c-2.5.5-5.2 1-7.8 1h-1.7a4.8 4.8 0 0 1-4.3-3.3 10.7 10.7 0 0 1 .2-8.4Zm19.5-7.9a254 254 0 0 1 23.4-16c1.5 9.8 2.8 19.8 4 29.6l1.7 13.8-10-3.8c-5.4-2.2-11-4.4-16.8-6a192 192 0 0 0-2.3-17.6Zm29.8 8-1.1-8.3c1.9.2 3.3 1.9 3.5 4a4 4 0 0 1-2.4 4.2Zm85.8-171.4c.9.8 1 1.3.3 2.3a104 104 0 0 0-4.2 7c-.3.7-.5 2 0 2.7.4.5 1.2.7 2 .8l.5.2h.1c.3 0 .6 0 .9-.2l2.8-1 7.8-2.8c3-1.2 6-2.3 9.3-1.2l.4.1h.2c8 1 14.3.2 20-2.6 8.7-4.2 13.4-11.4 12.7-19.6-.6-7.6-3.2-12.6-8.3-16.2a41.2 41.2 0 0 0-36.6-6c-7.4 2.1-11.8 6-13.5 11.8-.7 2.4-1 4.9-1 7.4-.1 7.5 2 13.2 6.7 17.3Zm1.7 6.4 2.1-4.7c1.3-2.3.1-3.9-1-5a16.1 16.1 0 0 1-4.3-6 19 19 0 0 1 1-17c1.6-3 4.3-4.8 8.6-6a38.4 38.4 0 0 1 32.3 4.2c5.3 3.3 8 7.9 8.1 14.6.2 5.4-1.9 9.7-6.5 13.3a25.5 25.5 0 0 1-16.3 4.9c-3.6 0-7.7-.1-11.8-1.4-.5-.1-1 .1-1.6.3l-9.1 3.7-2.3.9.8-1.8Z"/>
  <path fill="#003D0B" d="m482.9 149.8 1.2-.1a3 3 0 0 0 1-.5 2.5 2.5 0 0 0 1-1.7c0-.7-.2-1.4-.6-2-.4-.5-1-.9-1.7-1l-1.1.1-1 .5a3 3 0 0 0-1.2 1.9 2.4 2.4 0 0 0 .5 1.8c.5.5 1.2.9 1.9 1Zm11.6 2.2c.7.1 1.4 0 2-.5.5-.4.9-1 1-1.7.1-.7-.2-1.6-.7-2.3-.4-.5-1-.9-1.6-1-1.2-.2-2.7 1-2.9 2.5a2.7 2.7 0 0 0 2.3 3Zm11.3 1.3a2.6 2.6 0 0 0 2.8-2c0-.7-.1-1.4-.5-1.9a3.6 3.6 0 0 0-2.2-1.4h-.7l-.6.3a2.8 2.8 0 0 0-1 1.9 2.7 2.7 0 0 0 2.2 3Zm-388.1-3.1h-.7l-6 1-13.5 2-3 .4-1.2.1-.2-.3-2.2-12.1-1.3-6.8v-.4l-.3-1c-.7-1.6-1-2-2.9-1.6-2.2.4-4.3 1-6.3 2A24 24 0 0 0 68.2 145a33.5 33.5 0 0 0-3.2 14.9c0 6.7 2.7 12.2 7.7 16a30.6 30.6 0 0 0 23.5 6.5 38 38 0 0 0 9-2.5c3.5-1.4 6.1-3.4 8-5.9a34.3 34.3 0 0 0 6.5-17.3c.2-2 .1-3.7-.4-5.1-.2-.9-.6-1.3-1.6-1.3ZM75.5 173c-4-2.9-6.2-7.1-6.5-12.2a29 29 0 0 1 3.3-15.8 20 20 0 0 1 6.5-7 31.7 31.7 0 0 1 8-3.9l.1.3a12096.1 12096.1 0 0 1 2.9 19.7v.6c.1.8.4 1.4.9 1.7.4.4 1 .5 1.9.3h.5l.1-.1 3-.4 6.7-.9 8.3-1.2 4.4-.7h.1v1.3l-.1 3.2c-.8 4.5-2.1 8.3-4 11.6a14.3 14.3 0 0 1-6.4 6 27.5 27.5 0 0 1-29.7-2.5Z"/>
  <path fill="#003D0B" d="M122 141.8a41.7 41.7 0 0 0-3.7-5.6 32 32 0 0 0-24.8-12.3c-.6 0-1 .3-1.3.6-.2.4-.3.8-.2 1.5 0 .7.2 1.6.4 2.6l.2.5c1 4.2 2 8.7 2.3 13.1l.1 1 .3 2a49.3 49.3 0 0 1 .5 3.8c.3 1.5.8 1.8 2.2 1.6a17 17 0 0 0 2.5-.5l7-1.3 8.3-1.6 6-1.2c.6-.2 1.1-.5 1.3-1 .2-.5.1-1.1-.2-1.7l-1-1.5Zm-2.8 1.2-.8.2-3.3.6a337.4 337.4 0 0 0-13 2.5l-3.3.7-.5.1h-.1c-.7-7.5-1.7-14.2-3.3-20.4 9.7 0 19.4 6.6 24.3 16.3Zm269.1 25.9a55.3 55.3 0 0 0-22-39.8c-1.8-1.2-3.7-2.2-5.5-3.2-.4-.2-.8-.3-1-.6-.4-.4-.8-1-.7-1.4a1.6 1.6 0 0 1 1.1-1c1-.1 2-.1 2.9.3 2.4 1.2 4.9 2.3 7 4a57.4 57.4 0 0 1 20 26.2c2.2 5.8 3.6 12 4 18.2 0 1 0 1.8-.2 2.7a2.6 2.6 0 0 1-2.4 2.1c-1.1 0-2.1-.7-2.5-2l-.2-1.3-.5-4.2Zm-7.5 3.7.2 2.2a2.7 2.7 0 0 1-2 2.6c-1.2.3-2.3-.3-2.9-1.5l-.5-2c-1-5.8-2.6-11.4-5.4-16.7a42.2 42.2 0 0 0-20-18.6c-.6-.2-1.2-.4-1.5-.8-.4-.4-.7-1-.6-1.5a2 2 0 0 1 1.1-1.2 4 4 0 0 1 2.2.1 44.7 44.7 0 0 1 15 9.1 46 46 0 0 1 12.4 20.3c.8 2.7 1.4 5.3 2 8Zm-37.2 7.6c-1.9.2-3.8-.1-5.5-1a7.2 7.2 0 0 1-4-8c.4-2.3 1.5-4.3 3.1-6a6.6 6.6 0 0 1 5.7-2c1.1.2 2.3.2 3.4.3 3.2.4 4.9 1.8 5.7 5a10 10 0 0 1-.6 6.8c-1.3 3-3.7 4.4-7.8 4.9Zm4.7-9.6c-.3-2.2-1-3-3.2-3.3l-2.8-.5c-2.3-.4-2.6-.3-3.7 1.8l-.9 2.1c-.8 3.1.7 5.3 4 5.7h2.3c3.2-.6 4.6-2.5 4.3-5.8ZM361 173c-.5-4.3-2.3-8.3-5.2-11.5-3-3.2-6.4-6-10.5-7.6l-3-.9c-1.2-.3-1.7-1-1.5-1.9.1-.8.7-1.4 1.9-1.4 1 0 2.1.2 3.2.5a28.5 28.5 0 0 1 20.3 23.6v1.9c-.2.5-.4.9-.8 1.2-.4.4-.8.6-1.3.6s-1 0-1.4-.3a2 2 0 0 1-1-1c-.4-1-.5-2.1-.8-3.2ZM297.6 67.7l-15 17.9c-.3.4-.5 1-.9 1.4-.7 1-1.7 1-2.3-.2-.2-.5-.3-1-.3-1.6l.3-7.2 1.4-13.6.2-1.4c-5.2-2.8-10.2-5.7-15.1-8.8a9 9 0 0 1-1.8-1.5c-.7-.8-.5-1.4.4-1.8l2.7-.9 10.8-2.5 4.3-1.2a790.4 790.4 0 0 0 2.7-20.5c.3-1 1.2-1.3 2-.6l1 1c2.1 3 4.2 6 6.5 9l4.2 5 1-.3 12.5-3.4 6-1.4c.7-.2 1.3-.2 1.7.4.2.2.3.6.3.9 0 .3 0 .7-.2 1l-3 4.7-8.7 12.4-.7 1.2c0 .2.2.3.3.5a86.3 86.3 0 0 1 11.7 20c.5 1.4 0 1.7-1.3 2.3-2 .8-3.4 0-5-.8-4-2.2-8-4.4-11.8-7.1l-4-2.9Zm-14.9 13.4h.2l.6-.6 12-15.2c.9-1.2 1.6-1.4 3-.7 1 .5 1.8 1 2.7 1.7 4.1 2.8 8.5 5 12.8 7.4l.7.3-.3-.6a157 157 0 0 0-9-15.3c-1-1.3-1.1-2.4-.1-3.8l9.3-14.1.9-1.4-1.6.4c-4.6 1.2-9.2 2.3-13.7 3.7-2 .5-3.5 0-4.7-1.5h-.1l-3.9-5.2-3.7-5.6c-.2-.4-.5-.7-1-1.2l-.5 4-.9 11.8c-.2 2.5-1.6 4-4 4.4l-10.1 2c-1 .1-1.9.4-3 .7l4 2.1 10.4 5.8c.6.3 1.1.8 1.5 1.3.6.6.6 1.3 0 1.9-.5.4-.5.8-.6 1.4l-.6 8.4-.3 7.9ZM136.2 272.7l.8 2.4c.7 1.2 1.2 1.3 2.4 1.1l1.2-.1 11.4-1.8 1-.3 1.2-.3 1.9-.2c.7 0 1.5 0 2.3-.2h.1l24-4.2a6 6 0 0 0 4.9-4 68.4 68.4 0 0 0 4.1-20.7v-1.6l-.2-1.6v-.1l-.5-.9a6.8 6.8 0 0 0-7.2-4.3c-2.4.2-4.8.6-7.2 1-.5 0-1.1 0-1.7.2l-3.6.5-1.3.2a26.8 26.8 0 0 0-1-13.4c-.7-1.4-1.6-1.8-3.2-1.5-1 .2-2 .8-2.7 1.7l-.5.7c-.8 1-1.6 2.1-2.3 3.3l-2.3 4.7-.9 2a19 19 0 0 1-6.1 7.5 1.9 1.9 0 0 1-1.5.4c-2.1-.2-4 0-5.6.5a28 28 0 0 1-3.9 1l-1.5.5-1.5.4-2.6.7c-1.6.4-2.1 1.1-2.2 2.8v.9l.3 1.8.7 4.9c1 5.7 2.2 11.3 3.2 16Zm11.7-27.2a155 155 0 0 0 2.5 12.5c1 4 2 8.2 2.6 12.4l-13.1 2.1-.2-.5-1.9-9.4-1.8-9-.2-.8-.6-2.8c-.2-.7 0-1 .6-1.1l2.2-.7 4.3-1.3 4-1 1.4-.4h.2Zm19.6-14.9c.2 2 0 4.3-.6 7-.1 1-.2 1.9.2 3h.1l.2.1h.5l1.3-.2 3.5-.5c2.6-.4 5.3-.8 8-1 1.4-.2 2.9-.2 4.3.1 1.8.3 2.7 1.5 3 3.4.3 3 0 6-.8 9.9a240.2 240.2 0 0 1-2.9 11l-.3.6c-.4 1.2-1.3 2-2.6 2.3-1.8.4-3.8 1-6 1.3l-13.7 2.2-4.3.7-.7.1h-.1l-6.1-25.3.9-.6 2.2-1.5c2.8-2.1 4.9-5.1 6.7-9.4 1-2.3 2.3-5 4.1-7.4l1.3-1.1.6-.2.3.5c.4 1.7.7 3.3.9 5Z"/>
  <path fill="#003D0B" d="M142.4 247.3c-2.7.9-4.1 2.7-3.8 4.8a4 4 0 0 0 4.6 3.4h.1c1-.2 2-.8 2.7-1.7a3.8 3.8 0 0 0 .8-2.8 4.6 4.6 0 0 0-1.9-3 4 4 0 0 0-2.5-.7Zm.9 4.6c-.3.4-.7.5-1.3.3-.5-.2-.7-.5-.6-1l.2-.7.1-.3.4.1.8.5c.3.2.7.6.4 1Zm77.5 99.5-4.7 13.4-1.8 5c-.3.9-.6 2 .5 2.7.3.2.6.3 1 .3.7 0 1.3-.4 1.8-1l3-2.7c2.2-2 4.4-4.1 6.5-6.4 3.5-3.8 7-7.9 10.3-11.8a1789 1789 0 0 0 10.5-12.2l1.4-1.5c.6-.8 1.2-1.6.7-2.7s-1.4-1.3-2.4-1.3l-6-.2h-5.5l.1-.4.4-1 1.8-4.7 3.6-9.2a20 20 0 0 0 .9-3.4l-.3-.6a1.4 1.4 0 0 0-1-.6h-.7a7 7 0 0 0-2-.3l-9 .1h-5.2c-2.4 0-2.7.3-3.5 2.6l-.2.7-2 4.4c-2 4.6-4 9.4-6.2 14.1l-1.2 2.8-1.5 3c-.6 1.5-.7 2.4-.3 3 .5.7 1.3 1 2.9 1.1l1.9.1 3.6.2 3.1.2h1.2l-.4 1.9c-.4 1.5-.8 3-1.3 4.3Zm11.8-18c-.2.8-.1 1.4.2 1.8.3.4.9.6 1.7.7l7.1.2h3.3l-7.5 9c-5.2 6.4-10.6 13-16.8 18.8l.7-2.2 2.4-7.3c.6-2.1 1-4.3 1.5-6.4l.6-2.4.1-1.2c0-2-.6-2.6-2.6-2.7h-10.4l1.8-3.7a178 178 0 0 0 9.4-22.4h15.5v.1l-.3.7-2 4.9-4 9.5-.7 2.6ZM435 401l1.8.6c4.8 1.6 7.7 5 8.6 10 .5 2.4.5 4.9.4 7.4l-.4 6.1v1l1 .5c2.5 1 3.4 3 3.5 5.5v1.6a187 187 0 0 1-2.6 21.1c-.2 1.7-1 3.3-2 4.6a6 6 0 0 1-3.6 2c-2.2.4-4.4.4-6.6.1-7-.8-13.8-1.7-20.7-2.7-1.4-.2-2.8-.6-4.2-1-3-1-4.2-2.9-4.2-6l.3-4.2 2.5-16.2c.4-2.3 1-4.5 2.6-6.4a6.6 6.6 0 0 1 4.4-2.5l1.1-.2.4-1.8c.6-2.7 1.1-5.4 1.9-8a25 25 0 0 1 2.2-5.3c2-3.8 5.5-5.5 9.6-6.1l2.3-.2 1.8.2Zm-10 56.7v-.2l6.5.8c2.8.2 5.6.6 8.5.3 2.2-.2 3.3-.9 3.8-3 .3-1.5.6-3 .7-4.4.2-1.6.2-3.2.5-4.7.8-4 1-8 1.3-12V432c0-1-.3-1.7-1.3-2-1.8-.6-3.6-1.4-5.4-1.7-3.6-.7-7.3-1.2-11-1.8a62.8 62.8 0 0 0-13 0l-1.2 1a8.9 8.9 0 0 0-1.7 4.3l-3.2 18.8-.1 2c-.1 1.1.4 1.9 1.4 2.2l2.7.8 11.5 1.9Zm16.5-32.8c.1-2.5.4-4.7.4-6.9 0-2.1 0-4.3-.3-6.4-.4-3-2-5.3-5-6.5a9.3 9.3 0 0 0-4.8-.6 9 9 0 0 0-7.5 5.4 56.5 56.5 0 0 0-3.3 10l-.6 2.4h2.7l1-5.4c.4-1.9 1-3.7 1.8-5.4a7.6 7.6 0 0 1 7.5-4 7 7 0 0 1 6 5.2l.5 2.8a25 25 0 0 1-.1 6.9l-.2 2 1.9.5Zm-6-1.3c.3-2.3.9-4.7.7-7 0-1.2-.2-2.4-.5-3.6-.5-1.7-2-2.6-3.8-2.2-.7.1-1.3.4-1.9.8-.5.4-1 1-1.2 1.6-1.5 2.9-2 6-2.9 9.3l9.7 1.1Z"/>
  <path fill="#003D0B" d="M425.1 447.6c.1-1 .3-2-.4-3.1-.7-1-.3-2.4.6-3.3.9-.8 2-1 3.2-.4 2 1 2.4 2.7.8 4.4l-.4.7c0 .3-.1.5 0 .8l-.3 3c-.2 1.2-1.1 1.8-2 1.7-1-.1-1.7-1-1.7-2.2l.2-1.6ZM186.9 49.8c.5-4.8.9-9.6 1-14.2.3-7.3-3.2-10.7-7-10.8a136.3 136.3 0 0 1-13.6-1L158 23c-3.6-.3-6.9 3-8 7.7-.5 2-.7 4-1 6.1L147 56v.7l-1 7.5v1.3l-.5 3.2c-.5 2.8-.2 5.9 1 8.3 1.1 2.6 3.1 4.1 5.5 4.2 2.7.1 5.3.5 7.9.8h.1l9.1 1.4 1.5.3.8.2.3.2h.1l1.6.2h1.1l2.3-.3c3.3-.7 6.7-5.5 7.3-10.5l.4-3.5v-.6c.9-6.4 1.7-13 2.4-19.6Zm-5.3 23c-.4 4-3.1 8.2-6 8.6-2.2.3-4.4-.1-6.5-.6l-2.3-.5a82 82 0 0 1-2.8-.5l-1.2-.2-3-.4-3.5-.4-4-.5c-1.7-.2-3-2-3.7-3.7-.8-1.7-1-4-.7-6.9l2.4-19.9 1.3-11.4c.3-2.2.9-4.3 1.7-6.2 1-2 2.5-4 4.6-4 2.9-.1 5.5.3 7.7.4 6 .6 11 .7 15.4 1.2 3.2.5 4.3 4 4.3 9 0 5.3-.6 10.8-1.3 16v.5l-2.4 19.6Z"/>
  <path fill="#003D0B" d="M183.2 35.9c0-3.2-2.9-4.6-5.3-5h-.5a161 161 0 0 1-10-1l-7-.6c-2.7-.3-5 1-5.7 3a12 12 0 0 0-.5 2.6l-.8 7.8v.3l-.4 3.1v.6l-.2 1.2c-.3 1.2 0 2.6 1 3.7s2.4 1.8 4.1 2h.4a76.4 76.4 0 0 1 5.8.7h.1l6.8 1 1 .1.6.2h.3l1.3.2h2.5c2.5-.2 4.9-2.1 5.2-4.3l.1-1.4v-.3c.4-2.7.8-5.3 1-8 .2-2 .3-4 .2-5.9ZM171 53.4l-1.8-.4c-.7 0-1.4-.2-2-.3l-1-.1-2.1-.3-2.6-.3-3-.4a4.5 4.5 0 0 1-2.8-1.2c-.6-.7-.9-1.6-.7-2.7l1-8.2.5-4.7c0-.8.4-1.6 1-2.3.5-.8 1.5-1.1 3-1a529.3 529.3 0 0 1 15 1.4c.5 0 1.1 0 1.7.2 2.3.2 3.5 1.3 3.7 3.2a29 29 0 0 1-.3 6.6v.2l-1 8c-.2 1.5-1.9 2.7-3.9 2.7l-2.4-.1-2.3-.4v.1Zm-4.6 6.8a10 10 0 0 0-5.2.6c-1.8.7-3.8 1.8-4.7 4-1 3-1 5.8 0 8.7a6 6 0 0 0 4 4 20.7 20.7 0 0 0 4.4.8c2.6 0 4.7-.7 6.4-2.4a9.2 9.2 0 0 0 2.3-9.5 8 8 0 0 0-7.2-6.2ZM164 76.6c-1-.1-2.7-.8-3.7-1.2-1.3-.4-2-1.5-2.6-2.9-.8-2.3-.4-4.6.5-6.8.6-1.7 2.4-3.1 4.7-3.8.9-.2 1.9.1 2.8.2.7.1 2.4.5 3.1.8 2.8 1.2 3.6 4.4 3.2 7.6-.5 4-4 6.5-8 6.1Z"/>
  <path fill="#003D0B" d="M165.7 64.8h-.2c-.9-.1-1.7 0-2.4.3-.9.3-1.9.8-2.3 2a6 6 0 0 0 0 4.2 3 3 0 0 0 2 2l1.6.3h.5a4 4 0 0 0 3.2-1.1 4.5 4.5 0 0 0 1.1-4.7 3.9 3.9 0 0 0-3.5-3Zm-.6 1.4 1 .2c1.2.5 1.8 1.8 1.7 3.2-.2 1.7-1.5 2.6-3.2 2.5h-.2l-1.2-.3c-.5-.2-.9-.5-1-1a3.9 3.9 0 0 1 0-3c.2-.8.8-1.3 1.8-1.6a3 3 0 0 1 1.1 0Zm71.9 97.3c2 2.4 3 5 3 8.1 0 4.2-2.2 7.4-5.2 10a21 21 0 0 1-12.5 4.7 27.7 27.7 0 0 1-4.2-.2c-1.7-.6-2-1.9-.6-3l3.9-3.3c1-1 1.8-2 2.5-3 .8-1.1.9-2.4.4-3.9l-2.3 1c-1.4.9-2.2.9-3.5-.2l-3.6-3.3a7 7 0 0 0-.6-.4l-2.1 2c-1 .8-2 .8-2.6.1-.6-.7-.5-1.6.4-2.4l1.8-1.6c-1.4-1.7-2.8-3-3.8-4.7-1.1-1.9.3-3.5 1.2-5.4-1.7 0-3.1.2-4.2 1l-3 3c-.8 1-1.4 2.2-2.1 3.3-.7 1-1.4 2.1-2.9 2-1-.1-2.4-2-2.5-3.3-.2-3 .2-6 1.7-8.9 2.6-5 6.8-8.4 12.2-10.2 2.3-.8 4.6-.5 6.9.2l.4-.5a47.8 47.8 0 0 1 25-17.6 37 37 0 0 1 10.5-2.2l2.8-.1c1.2 0 1.8.4 1.7 1.6 0 2.3-.3 4.5-.6 6.7a49.1 49.1 0 0 1-10.8 22.2c-2 2.5-4.3 4.9-6.5 7.3l-.9 1Zm-20.4 3.8c1.3 1.1 2.3 2 3.4 2.7l.6.2c.2 0 .4 0 .5-.2 1.7-.9 3.5-1.7 5-2.8a69 69 0 0 0 15-13.6l6.7-9-13-12.1-1.3.6c-2.6 1.7-5.2 3.3-7.6 5.2-2.8 2-5.1 4.5-7.2 7.2-3.4 4.5-5.5 9.8-8 14.8-.3.5-.1 1.5.2 2l3.4 3.4 5.5-5.8c1.1-1 2.3-1.8 3.5-2.6.6-.4 1.4-.6 2 .1.6.7.1 1.3-.3 1.9l-1.6 1.7-3.6 3.5-3.2 2.8Zm36.6-40c-5.5 0-10.5 2-15.5 3.7v.4l11.5 9.7c2-3.1 3.5-8.3 4-13.8Zm-27.6 54c4.7-.8 8.3-3.2 10.4-7.6 1.3-3 .4-5.6-1.2-8.2l-8 6c2.1 3.6 1 6.8-1.2 9.8Zm-11.7-34c-6.8-1.1-16 8-15.5 14.2 2.8-4.3 6.3-7 11.6-6l3.9-8.2Z"/>
  <path fill="#003D0B" d="M200.2 181c.2-.4.4-1 .9-1.5a196 196 0 0 1 5-5c.4-.6 1-.9 1.7-.3.6.5.3 1.2 0 1.7l-4.2 5.5a4 4 0 0 1-1.6 1.1c-1 .4-1.8-.3-1.8-1.6Zm15-6.8c1 0 1.7 1 1.2 1.6a47.6 47.6 0 0 1-3.6 5c-.5.5-1.3.4-1.9-.2a1.5 1.5 0 0 1-.3-1.9l1.3-1.6a33 33 0 0 1 3.3-2.8Zm-8.7-7.3c-.1.4-.4.8-.6 1.1a270 270 0 0 1-4.5 5.2c-.7.4-1.3.4-1.8-.2-.5-.6-.4-1.2.1-1.7l5.2-5c.3-.2.8-.2 1.1-.1.2 0 .3.4.5.7Zm27.7-27.9c1.7 0 3 .7 4.3 1.8a8.2 8.2 0 0 1 3 4c1 4-1.2 6.8-5 7.4-3 .4-5.6-.9-7.4-3.2-1.6-2-1.7-4.4-.6-6.7s3.2-3.3 5.7-3.3Zm-3.6 6.3c.4.7.7 1.7 1.4 2.3.7.6 1.6 1 2.5 1.2 1.2.5 2.2 0 3-.8.7-.8.8-1.8.4-2.8-.6-1.6-2-2.4-3.4-3.2-1.2-.6-2.4-.2-3 1-.4.6-.6 1.4-1 2.3ZM107.6 339l1.8-2.9c.7-1 1.5-2 2.4-2.9 1.1-1.2 2.3-1 3 .5 1.2 2 2.1 4 3 6.1 1.9 4 3 8 2.7 12.3a20.2 20.2 0 0 1-11.5 17.2 82.7 82.7 0 0 1-8 3.7 20.8 20.8 0 0 1-27.6-12.5 26.7 26.7 0 0 1 .8-18.9c1.5-4 3.7-7.8 5.6-11.6 1.2-2.4 2.3-4.7 3.3-7.2.8-1.9 1-3.9.8-6 0-.4 0-.9.4-1.3.1-.1.8.2 1.2.3l2 .7a29.8 29.8 0 0 1 16.9 15l2.8 6.5.4 1Zm-21.5-20.7c.3 3.6-.7 6.8-2.2 9.8l-4.3 8.8a37.7 37.7 0 0 0-4.2 14.6c-.7 11.6 9.6 23.4 23.6 19 3.8-1.1 7.6-2 10.7-4.8 5.1-4.3 8-9.5 7.8-16.3-.1-5-2.6-9-4.6-13.5-2 2.5-3.2 5-3.6 8l-.3 1.7c-.1.7-.6 1.2-1.4 1.3-.8 0-1.3-.6-1.4-1.3l-.5-2.5a35 35 0 0 0-10-19 23 23 0 0 0-9.6-5.8Z"/>
  <path fill="#003D0B" d="m108.2 316.6 1.3 2c1 1.5 2 2.9 2.8 4.4 1.4 3.1.3 6.1-2.7 7.7-1 .6-1.9.4-2.5-.6l-1-1a8 8 0 0 1-2.7-8c.5-2 1.5-3.9 2.7-5.7.2-.3.7-.6 1-.6.4 0 .8.5 1 .9.2.2.2.5.3.8l-.2.1Zm-1.6 2.1c-1.9 3-2.4 7 1.6 9.7 1.8-1 2.3-2.4 1.7-4.4-.7-2-2-3.6-3.3-5.3Zm-8.8 30.2.6-4c.1-.7.3-1.3 1-1.5.7-.2 1.2.2 1.7.7a32 32 0 0 1 5.6 7.6 9.7 9.7 0 0 1-4.5 13 14.7 14.7 0 0 1-10.1 1c-4-1-6.4-3.8-7.5-7.5-2.2-7.2.8-15.8 7-20.1.4-.4.9-.8 1.4-1 .4-.2 1-.5 1.3-.3a1.9 1.9 0 0 1 .8 1.3v2.8c-.1 3.4.6 5.7 2.6 8Zm-5.4-8.8a16.7 16.7 0 0 0-5.7 16c.7 5.1 4.8 8.2 10.1 8 .2 0 .5 0 .7-.2 1.5-.8 3-1.6 4.4-2.6a6.8 6.8 0 0 0 2.4-8.2c-.9-2.3-2.4-4.2-4-6h-.4l-.1 3.8c0 1.1-1 1.8-2 1.4l-.6-.4a12.3 12.3 0 0 1-4-6.2c-.4-1.8-.5-3.7-.8-5.6ZM417.3 264a19 19 0 0 1-10.5-7.3 9 9 0 0 1-1.2-7.8c.6-2.3 1.8-3.1 4.2-2.7l11.3 2.3c3.7.8 7.3 1.8 11 2.7 2.8.8 3.5 2.2 1.9 4.8-1.3 2-2.8 3.8-4.5 5.4a11.8 11.8 0 0 1-12.2 2.6Zm-8.3-8.7c7.3-4 13.5-1.8 19.5 3l3-4.3-23.3-6c-.9 2.8-.8 5.2.8 7.3Zm1.7 1.8c3.2 3.5 11.6 6.6 15.4 3-2.3-4.1-11.3-5.9-15.4-3Zm37.3-3.3c-.8 2.4-3.4 3.5-5.8 2.7a8 8 0 0 1-5-7.2c0-1 .6-1.6 1.6-1.9a8 8 0 0 1 8 2 4.6 4.6 0 0 1 1.1 4.4Zm-7.4-3.5-.2.4a4.7 4.7 0 0 0 2.8 2.9c.5.2 1.1-.2 1.7-.3-.2-.6-.2-1.5-.6-1.7-1.2-.6-2.5-.9-3.7-1.3Zm-43.6-3.1c-.6-.3-1.2-.7-1.6-1.1a5 5 0 0 1-.9-1.8c-.5-1.7.4-3 1.7-4 2.3-1.9 5-2.4 7.9-1.7 1.2.3 1.6 1 1.1 2-1 2-2 3.9-3.3 5.6-1 1.4-2.5 1.7-5 1h.1Zm5.5-6.6c-2 0-3.5.6-4.7 1.7-.6.6-1.3 1.1-.4 2 .8.9 2 1 2.6.2 1-1.1 1.6-2.5 2.5-3.9Zm11-5.4-2.5-4-1-1.6c-.2-.6-.6-1.3.2-1.8s1.2.1 1.7.7l2.6 3.7 1.7 2.1c1 1.2 1 2.5-.3 3.3a47 47 0 0 1-5.6 2.8c-.8.3-1.8.2-2.2-.8-.5-1 0-1.7.9-2.2 1.4-.8 2.9-1.4 4.5-2.2Zm19.8 6 2.2 2c.6.6 1.1 1.2 1.6 2l.1.6c0 .3 0 .5-.2.7-.3.3-1.1.5-1.3.3-1.8-1.5-3.7-3-5.2-4.8-.7-.7-.1-1.9.8-2.3 2.7-1.3 5.4-2.4 8-3.5.4-.1 1 .2 1.3.6.1.1-.2.9-.5 1.1l-2 1-4.8 2.3Z"/>
  <path fill="#003D0B" d="M395.2 231.8a27.8 27.8 0 0 0-.7 28.2l.3.7a40 40 0 0 0 10 11c1.4 1.2 9.3 4.3 11.6 4.6 13.6 1.7 24.3-3.3 30.7-14.8a26.7 26.7 0 0 0-.8-28.7 30 30 0 0 0-29.7-14.5c-9.4.6-16.6 5.2-21.4 13.5Zm20.6-10.5c9.3-1.2 17.8.6 24.5 8 1.2 1.4 4.3 5.7 4.8 6.4a25.4 25.4 0 0 1 2.3 17.8 26.5 26.5 0 0 1-23.1 20.2c-9.3 1.6-20-5.7-22.6-8.6-2.8-3.4-5-7.2-6.5-11.3a25.5 25.5 0 0 1 20.6-32.5ZM449 52.7a11 11 0 0 1-7.4 12 2 2 0 0 0-1 1 5.3 5.3 0 0 1-4.8 3.5c-2.3.3-4.2-.5-5.7-2.5a3 3 0 0 0-1.7-1 10 10 0 0 1-7.5-11.3c.3-1.2.8-1.7 2-1.3a31.7 31.7 0 0 0 15.5.3c2.5-.5 5-1.5 7.4-2.6 2.2-1 2.7-1 3 1.4l.1.5Zm-18.7 4.2.2 1.6c.5 2.2.8 4.3 1.5 6.4.4 1.5 1.9 2.1 3.6 2 1.5-.2 2.3-1 2.6-2.6.5-2.7.2-5.4-.1-8.2l-7.8.8Zm-8-1.4c.4 1 .7 2.1 1.3 2.3 1.5.4 3 .4 4.7.5v-1.6l-6-1.2Zm24.7-1.9-6.2 2.1.3 1.7 5.8-2.1.1-1.7Zm-23 6.1c1.3 2 2.8 3.1 5 3.6l-.5-3-4.5-.6Zm21.8-2-4.6 1.3.1 2.8c2-1 3.6-2 4.5-4Zm-20-16.5c.9.1 2.6.4 4.3.9.8.2 1.4.8 1.1 1.7-.3.9-1 .8-1.8.7-1.5-.2-3-.6-4.6-.6-1.8 0-3.4.6-4.4 2.4-.2.3-.6.6-.8.5-.3 0-.8-.5-.7-.7 0-.8.1-1.7.6-2.3 1.3-1.7 3.3-2.3 6.3-2.6Zm16.4.4v-1.2c0-1 .2-2 1.4-2.2 1.1-.3 2 .3 2.4 1.3a7 7 0 0 1 .3 3.2c0 .6-1 1.5-1.5 1.6-.6 0-1.5-.6-2-1.2-.4-.4-.4-1.1-.6-1.5Z"/>
  <path fill="#003D0B" d="M405 47.9a27.8 27.8 0 0 0 10.2 27 40 40 0 0 0 13.3 6.6c1.8.6 10.2.6 12.5 0 13.3-3.3 21.4-11.9 23.2-25a26.7 26.7 0 0 0-9.5-25.3l-1.7-1a29.9 29.9 0 0 0-33-2.7 25.3 25.3 0 0 0-15 20.4Zm15.4-17.4c8.2-4.4 16.8-6 25.7-1.4 1.6.8 6 3.7 6.8 4.1v.1c3.7 3.1 8 9.1 8.7 15.7a26.7 26.7 0 0 1-14.2 27.2c-8 5-20.7 2-24.2.2-3.8-2-7.2-4.8-10.2-8a25.5 25.5 0 0 1-4.9-21 24.4 24.4 0 0 1 12.3-16.9ZM170.9 455.9l1.1-.2c1.2 0 2.4-.2 3.5-.3h1l.5-.1h.8c.7 0 1.3 0 2-.2 1.4-.2 3.7 4 5 3.7 1.4-.4 10.2-1.3 11.4-2.3a13 13 0 0 0 5.6-12.7l-1.1-9.5-.2-1.5-.4-3.8a66.6 66.6 0 0 0-2.8-16c-1-3-2.5-5.2-4.8-6.6a40.4 40.4 0 0 0-17-1.2c-2.9.6-5.6 1-8.3 1.4l-8.1 1c-4 .4-8 .8-12 1.5l-4.9.7-4.5.7c-2.8.5-13.7 2.6-15.5 4.5a10.1 10.1 0 0 0-3 7.1c0 1.9.1 3.7.3 5.6v.1l.4 2.3.3 1.8a5507.2 5507.2 0 0 1 2.7 22.6 10 10 0 0 0 2.8 5.9c3 3.2 14 3.7 18.9 2.8 1-1 1-4.9 1.4-5l2.1-.3 5-.5 1.3-.2h.3M197 434l.3 2.8 1 8.4-.1 1.8a12 12 0 0 1-1.7 4.2c-1.2 2-8.6 3.3-11.2 4-1.1-4-4-3.4-5.7-3l-2.4-.1c-.3 0-1.3-.2-1.7-.1-1.1 0-1.7.2-2.9.3-2.2.2-4.5.1-6.8.2a157.4 157.4 0 0 0-14.8 1.2c-2.4.3-8.4-.9-10 6.6-1.7.2-8.1.4-9.4 0a7.6 7.6 0 0 1-4.6-4c-.9-1.9-1.3-3.6-1.3-5.3a10.4 10.4 0 0 0-.2-1.9c0-1.2-.2-2.5-.4-3.7l-1-10-.6-3.9-.6-4.6c-.3-2.2 0-4.5.7-6.7.8-2.2 11-4.7 13.6-5.5l4.3-1c5.6-1.1 11.4-1.8 17-2.5l3.8-.4 5.3-.7 8.6-1c2-.3 8.1-1 10.5.2 1.4.6 5.6 2.4 6.3 4.1.6 1.4 1 2.9 1.4 4.3l.3.7a47.7 47.7 0 0 1 1.2 5.4l.8 7.5.3 2.7Zm-39 23 9.2-.8Z"/>
  <path fill="#003D0B" d="M179.6 426.9c1 1.8 1 3.7-.4 5.3-4.4-3.4-8.7-.5-10 0a4.8 4.8 0 0 1-.5-5.4l.2-.5a4.2 4.2 0 0 1 3-2.7c2.4-.8 6.2.6 7.7 3.3Zm-32.2-.6c1.6.1 2.7.8 3.5 2l.3.4a4.8 4.8 0 0 1 .7 5.3c-1.4 0-6.2-2-9.8 2.3a4.6 4.6 0 0 1-1.5-5c.8-3 4.3-5.2 6.8-5Z"/>
  <path fill="#003D0B" d="M190.1 424a12.4 12.4 0 0 0-7.2-7.7 18 18 0 0 0-9.8-1.3l-9.6 1.4-4.4.6-5.8.7c-3.3.4-6.5.7-9.7 1.2-3.3.4-6.4 1.6-9.1 3.8a12.5 12.5 0 0 0-5 9.4c-.2 4.7 1.9 8.2 5.6 10.5 1.4 1 3.2 1.5 4.8 2 3.5 1 7.2 1.4 10.8 1h1.6l1.2-.2c2.4 0 2.6-.2 3.8-.4 5.4-1 10.4-1.3 15.8-2.3a28.8 28.8 0 0 0 14.3-7c3-3.2 4.1-7.1 2.8-11.6Zm-4.8 9.9c-2 1.6-4.2 2.7-6.4 3.7-3 1.3-6.2 2-9.4 2.4a611.5 611.5 0 0 1-16 2.1 35 35 0 0 1-9.7.1c-2.4-.3-4.8-.8-7.1-1.9a8.3 8.3 0 0 1-3.3-11.9c2-3.2 4.8-5 8.1-5.8 3.8-.9 7.6-1.4 11.3-1.9l4.9-.6 7-1c3.8-.4 7.6-1 11.4-1 3.4-.1 6.7.9 9.4 3.5a8.3 8.3 0 0 1-.2 12.3Zm140-195.9-1-.4-2.7-1.4c-2.1-1-4.2-2-6.4-2.8-9.4-3.4-19.7-6.2-31.7-8.5l-5.7-1-3-.6h-.2l-.1.3-.3.5-.4 1.4c0 1.8.2 3.6.4 5.4l.5 3.6a713 713 0 0 0 3 19.2c1 6.1 2.2 12.4 3.4 18.4l1.4 7.3.5 2a2.8 2.8 0 0 0 1.8 1.8c.4.1.8.2 1.2 0 .5 0 1-.2 1.3-.5a7 7 0 0 0 1-1c.2 0 .4-.2.5-.3l2.8-2.6 6-5.6a6288.5 6288.5 0 0 1 20-18 87 87 0 0 0 9-10.4c1.2-1.4 1.6-2.6 1.4-3.7-.2-1-1-2-2.7-3Zm-47.5-10h.1a88.2 88.2 0 0 0 13.5 5c7 2 13 4 18.8 6l6.1 2.4 2.2 1 1.4.7.7.4a28.2 28.2 0 0 1-4 5.2c-2.6 2.6-5 5.1-7.7 7.5l-17 15-4.3 3.9-.6.4c-1.5-5-8.3-40.6-9.2-47.6Z"/>
</svg>
